<?xml version="1.0" encoding="utf-8"?>
<!-- Generator: Adobe Illustrator 16.0.3, SVG Export Plug-In . SVG Version: 6.00 Build 0)  -->
<!DOCTYPE svg PUBLIC "-//W3C//DTD SVG 1.1//EN" "http://www.w3.org/Graphics/SVG/1.1/DTD/svg11.dtd">
<svg version="1.1" xmlns="http://www.w3.org/2000/svg" xmlns:xlink="http://www.w3.org/1999/xlink" x="0px" y="0px" width="32px"
	 height="32px" viewBox="0 0 32 32" enable-background="new 0 0 32 32" xml:space="preserve">
<g id="Layer_1">
	<circle fill="#49A4CB" cx="16" cy="16" r="16"/>
</g>
<g id="Layer_2">
	<circle fill="#155FA4" cx="16" cy="16" r="16"/>
</g>
<g id="facebook">
	<path fill-rule="evenodd" clip-rule="evenodd" fill="#FDFDFD" d="M14.183,20.512c0-1.031-0.006-2.063,0.005-3.093
		c0.002-0.218-0.053-0.286-0.275-0.278c-0.458,0.018-0.916,0.008-1.375,0.004c-0.39-0.003-0.533-0.141-0.535-0.521
		c-0.003-0.677-0.004-1.354,0-2.031c0.002-0.36,0.152-0.509,0.516-0.514c0.448-0.006,0.896-0.014,1.343,0.003
		c0.236,0.009,0.321-0.044,0.316-0.303c-0.016-0.749-0.021-1.5,0.011-2.249c0.041-0.952,0.33-1.821,1.028-2.508
		c0.657-0.645,1.477-0.916,2.375-0.951c0.646-0.026,1.292-0.012,1.938-0.008c0.347,0.001,0.499,0.145,0.504,0.492
		c0.01,0.573,0.009,1.146,0.001,1.719c-0.005,0.364-0.15,0.494-0.525,0.503c-0.437,0.011-0.875,0-1.311,0.034
		c-0.69,0.054-1.053,0.441-1.071,1.138c-0.018,0.635,0,1.271-0.014,1.906c-0.004,0.185,0.06,0.221,0.229,0.219
		c0.729-0.008,1.458-0.005,2.187-0.003c0.485,0.001,0.63,0.179,0.566,0.66c-0.081,0.619-0.153,1.239-0.222,1.86
		c-0.049,0.446-0.16,0.554-0.614,0.555c-0.625,0.002-1.25,0.011-1.875-0.005c-0.225-0.006-0.273,0.066-0.272,0.279
		c0.008,2.042,0.005,4.083,0.005,6.125c0,0.453-0.066,0.518-0.524,0.518c-0.667,0-1.333,0.002-2-0.001
		c-0.346-0.001-0.42-0.075-0.421-0.425c-0.002-1.041-0.001-2.083-0.001-3.125C14.176,20.512,14.18,20.512,14.183,20.512z"/>
</g>
<g id="linkedin" display="none">
	<path display="inline" fill-rule="evenodd" clip-rule="evenodd" fill="#FDFDFD" d="M16.811,14.852
		c1.193-1.904,3.373-1.963,4.867-1.392c1.061,0.406,1.572,1.27,1.82,2.324c0.179,0.756,0.218,1.528,0.22,2.3
		c0.004,1.783-0.003,3.566,0.006,5.35c0.002,0.224-0.054,0.288-0.281,0.284c-0.887-0.015-1.773-0.014-2.66,0
		c-0.217,0.003-0.267-0.055-0.266-0.268c0.009-1.688,0.005-3.375,0.002-5.063c0-0.382-0.027-0.763-0.107-1.137
		c-0.159-0.74-0.583-1.177-1.221-1.257c-0.924-0.116-1.599,0.183-1.945,0.866c-0.271,0.535-0.314,1.115-0.316,1.697
		c-0.007,1.621-0.007,3.242,0.003,4.862c0.001,0.234-0.052,0.304-0.294,0.3c-0.877-0.016-1.754-0.012-2.632-0.003
		c-0.191,0.002-0.26-0.037-0.26-0.246c0.007-3.28,0.006-6.561,0.001-9.841c0-0.178,0.047-0.221,0.222-0.219
		c0.877,0.009,1.754,0.011,2.631,0c0.188-0.003,0.219,0.06,0.214,0.227C16.803,14.013,16.811,14.391,16.811,14.852z"/>
	<path display="inline" fill-rule="evenodd" clip-rule="evenodd" fill="#FCFCFC" d="M8.551,18.543c0-1.621,0.003-3.242-0.004-4.863
		c-0.001-0.201,0.03-0.276,0.257-0.272c0.906,0.016,1.813,0.011,2.718,0.003c0.17-0.001,0.229,0.035,0.228,0.218
		c-0.006,3.29-0.005,6.581,0,9.871c0,0.186-0.067,0.218-0.233,0.216c-0.906-0.007-1.812-0.009-2.718,0.002
		c-0.202,0.003-0.253-0.055-0.252-0.253C8.555,21.823,8.551,20.183,8.551,18.543z"/>
	<path display="inline" fill-rule="evenodd" clip-rule="evenodd" fill="#FCFCFC" d="M10.125,12c-1.023,0-1.851-0.83-1.849-1.856
		c0.001-1.021,0.833-1.858,1.853-1.863c1.014-0.005,1.864,0.836,1.867,1.85C11.999,11.167,11.165,12,10.125,12z"/>
</g>
<g id="instagram" display="none">
	<path display="inline" fill-rule="evenodd" clip-rule="evenodd" fill="#FFFFFF" d="M8.063,16.039c0-1.052-0.002-2.104,0-3.156
		c0.008-2.709,2.104-4.813,4.812-4.82c2.125-0.005,4.249-0.005,6.374,0c2.708,0.007,4.806,2.108,4.813,4.819
		c0.005,2.114,0.005,4.229,0,6.343c-0.006,2.733-2.098,4.829-4.827,4.836c-2.114,0.005-4.229,0.005-6.343,0
		c-2.728-0.006-4.822-2.106-4.829-4.835C8.061,18.164,8.063,17.102,8.063,16.039z M16.095,9.68c-1.063,0-2.125-0.003-3.187,0.001
		c-1.862,0.006-3.218,1.343-3.229,3.203c-0.012,2.114-0.011,4.229,0,6.342c0.009,1.865,1.349,3.21,3.212,3.221
		c2.114,0.011,4.228,0.011,6.342,0c1.864-0.01,3.203-1.353,3.213-3.219c0.011-2.114,0.012-4.229-0.001-6.343
		c-0.01-1.863-1.364-3.198-3.227-3.204C18.177,9.677,17.136,9.68,16.095,9.68z"/>
	<path display="inline" fill-rule="evenodd" clip-rule="evenodd" fill="#FFFFFF" d="M11.928,16.061
		c0.003-2.304,1.851-4.14,4.157-4.131c2.283,0.009,4.11,1.854,4.108,4.149c-0.001,2.277-1.861,4.126-4.143,4.116
		C13.758,20.185,11.926,18.348,11.928,16.061z M18.584,16.07c0.005-1.399-1.105-2.52-2.506-2.53
		c-1.397-0.01-2.522,1.098-2.538,2.499c-0.015,1.407,1.113,2.545,2.522,2.545C17.462,18.584,18.579,17.47,18.584,16.07z"/>
	<path display="inline" fill-rule="evenodd" clip-rule="evenodd" fill="#FFFFFF" d="M20.224,12.941
		c-0.572-0.001-1.036-0.468-1.026-1.033c0.01-0.551,0.473-1.006,1.024-1.006c0.565,0,1.031,0.472,1.024,1.037
		C21.238,12.494,20.781,12.942,20.224,12.941z"/>
</g>
<g id="twitter" display="none">
	<path display="inline" fill-rule="evenodd" clip-rule="evenodd" fill="#FDFDFD" d="M9.333,14.127
		c-0.571-0.701-0.907-1.489-0.881-2.408c0.015-0.512,0.137-0.997,0.37-1.453c0.174-0.34,0.251-0.351,0.497-0.063
		c1.009,1.186,2.238,2.059,3.693,2.611c0.696,0.265,1.416,0.431,2.154,0.524c0.25,0.032,0.347-0.021,0.333-0.306
		c-0.067-1.439,0.5-2.568,1.795-3.224c1.311-0.663,2.594-0.521,3.764,0.388c0.21,0.163,0.402,0.2,0.655,0.123
		c0.475-0.144,0.931-0.328,1.364-0.566c0.104-0.057,0.212-0.156,0.338-0.057c0.147,0.116,0.042,0.251-0.002,0.366
		c-0.162,0.424-0.396,0.809-0.745,1.16c0.348,0.034,0.602-0.126,0.874-0.223c0.111-0.04,0.229-0.123,0.332,0.017
		c0.094,0.125-0.004,0.211-0.065,0.301c-0.286,0.419-0.604,0.819-1.003,1.129c-0.37,0.288-0.47,0.63-0.505,1.086
		c-0.295,3.901-2.107,6.822-5.769,8.357c-2.697,1.131-5.414,0.929-8.029-0.412c-0.073-0.038-0.143-0.083-0.215-0.122
		c-0.134-0.075-0.245-0.171-0.194-0.344c0.05-0.167,0.189-0.195,0.346-0.19c0.842,0.022,1.664-0.09,2.458-0.38
		c0.454-0.165,0.89-0.369,1.304-0.658c-0.096-0.11-0.229-0.092-0.335-0.125c-1.081-0.34-1.835-1.027-2.248-2.085
		c-0.126-0.324-0.051-0.41,0.294-0.36c0.061,0.009,0.123,0.017,0.184,0.02c0.062,0.004,0.123,0.001,0.194,0.001
		c-0.043-0.116-0.155-0.131-0.234-0.182c-0.993-0.643-1.543-1.547-1.625-2.729c-0.029-0.422,0.047-0.47,0.423-0.301
		c0.14,0.063,0.287,0.108,0.431,0.162c0.034,0.018,0.069,0.031,0.096-0.007C9.385,14.174,9.351,14.145,9.333,14.127z"/>
</g>
</svg>
