<?xml version="1.0" encoding="utf-8"?>
<!-- Generator: Adobe Illustrator 16.0.3, SVG Export Plug-In . SVG Version: 6.00 Build 0)  -->
<!DOCTYPE svg PUBLIC "-//W3C//DTD SVG 1.1//EN" "http://www.w3.org/Graphics/SVG/1.1/DTD/svg11.dtd">
<svg version="1.1" id="Layer_1" xmlns="http://www.w3.org/2000/svg" xmlns:xlink="http://www.w3.org/1999/xlink" x="0px" y="0px"
	 width="32px" height="32px" viewBox="0 0 32 32" enable-background="new 0 0 32 32" xml:space="preserve">
<g>
	<path fill-rule="evenodd" clip-rule="evenodd" fill="#010101" d="M32.063,9.688c0,4.917,0,9.833,0,14.75
		c-0.021,0.02-0.052,0.036-0.061,0.061c-0.501,1.422-1.275,1.975-2.771,1.975c-8.778,0-17.558,0-26.337,0
		c-0.073,0-0.146,0.002-0.218,0c-1.258-0.024-2.144-0.686-2.531-1.885c-0.018-0.054-0.001-0.13-0.083-0.15c0-4.917,0-9.833,0-14.75
		c0.083,0.038,0.17,0.071,0.25,0.116c5.043,2.81,10.087,5.618,15.124,8.438c0.439,0.246,0.813,0.25,1.253,0.003
		c3.975-2.23,7.957-4.448,11.938-6.667C29.77,10.942,30.918,10.317,32.063,9.688z"/>
	<path fill-rule="evenodd" clip-rule="evenodd" fill="#010101" d="M16.08,5.699c4.437,0,8.873-0.001,13.31,0.001
		c1.25,0,2.218,0.691,2.566,1.798c0.063,0.201,0.025,0.289-0.155,0.39c-5.183,2.883-10.362,5.771-15.54,8.664
		c-0.146,0.081-0.256,0.073-0.399-0.006c-5.178-2.891-10.358-5.779-15.541-8.661C0.136,7.78,0.108,7.689,0.17,7.494
		C0.513,6.409,1.476,5.705,2.676,5.7c1.687-0.006,3.375-0.001,5.062-0.001C10.519,5.699,13.299,5.699,16.08,5.699z"/>
</g>
</svg>
