<?xml version="1.0" encoding="utf-8"?>
<!-- Generator: Adobe Illustrator 16.0.3, SVG Export Plug-In . SVG Version: 6.00 Build 0)  -->
<!DOCTYPE svg PUBLIC "-//W3C//DTD SVG 1.1//EN" "http://www.w3.org/Graphics/SVG/1.1/DTD/svg11.dtd">
<svg version="1.1" id="Layer_1" xmlns="http://www.w3.org/2000/svg" xmlns:xlink="http://www.w3.org/1999/xlink" x="0px" y="0px"
	 width="32px" height="32px" viewBox="0 0 32 32" enable-background="new 0 0 32 32" xml:space="preserve">
<g>
	<path fill-rule="evenodd" clip-rule="evenodd" fill="#FFFFFF" d="M31.764,3.364c-0.102,0.061-0.095,0.174-0.123,0.267
		c-2.478,8.115-4.952,16.229-7.428,24.346c-0.249,0.815-0.916,1.041-1.602,0.534c-2.69-1.995-5.382-3.989-8.065-5.994
		c-0.232-0.173-0.31-0.156-0.44,0.105c-1.067,2.146-2.152,4.281-3.226,6.424c-0.195,0.389-0.461,0.658-0.921,0.657
		c-0.476,0-0.867-0.362-0.914-0.838c-0.01-0.113-0.005-0.228-0.005-0.341c0-3.219-0.003-6.438,0.005-9.656
		c0-0.222-0.065-0.318-0.272-0.396c-2.649-1.015-5.293-2.044-7.944-3.054c-0.35-0.133-0.582-0.359-0.766-0.661
		c0-0.186,0-0.372,0-0.557c0.2-0.354,0.498-0.555,0.883-0.702c9.777-3.723,19.549-7.457,29.322-11.188
		c0.76-0.29,1.143-0.148,1.496,0.559C31.764,3.033,31.764,3.199,31.764,3.364z M24.063,6.684c-0.098,0.03-0.197,0.056-0.293,0.093
		C17.913,9.013,12.056,11.25,6.2,13.486c-0.849,0.325-1.7,0.649-2.592,0.989c0.129,0.059,0.21,0.101,0.295,0.134
		c1.889,0.729,3.779,1.454,5.664,2.192c0.211,0.082,0.354,0.048,0.53-0.078c3.89-2.778,7.784-5.549,11.676-8.324
		c0.779-0.555,1.55-1.121,2.324-1.681c0.03-0.007,0.053-0.022,0.031-0.054C24.124,6.658,24.085,6.677,24.063,6.684z M15.33,20.793
		c2.486,1.845,4.954,3.677,7.448,5.526c1.999-6.557,3.985-13.068,5.971-19.58c-0.021-0.011-0.044-0.021-0.065-0.032
		C24.234,11.399,19.788,16.091,15.33,20.793z M10.898,24.754c0.015,0.004,0.031,0.009,0.047,0.014
		c0.045-0.085,0.092-0.17,0.136-0.256c0.659-1.303,1.318-2.606,1.974-3.911c0.07-0.14,0.152-0.267,0.26-0.38
		c2.158-2.275,4.314-4.553,6.472-6.829c1.043-1.101,2.086-2.201,3.128-3.303c0.053-0.056,0.17-0.118,0.109-0.194
		c-0.082-0.105-0.157,0.026-0.234,0.061c-0.018,0.008-0.032,0.025-0.049,0.037c-3.878,2.761-7.754,5.524-11.636,8.279
		c-0.167,0.118-0.211,0.24-0.21,0.431c0.006,1.93,0.004,3.858,0.004,5.788C10.898,24.578,10.898,24.666,10.898,24.754z"/>
	<path fill-rule="evenodd" clip-rule="evenodd" fill="#FCFCFC" d="M24.063,6.684c0.022-0.007,0.062-0.026,0.065-0.021
		c0.021,0.032-0.001,0.047-0.031,0.054C24.085,6.706,24.074,6.695,24.063,6.684z"/>
</g>
</svg>
