<?xml version="1.0" encoding="utf-8"?>
<!-- Generator: Adobe Illustrator 16.0.0, SVG Export Plug-In . SVG Version: 6.00 Build 0)  -->
<!DOCTYPE svg PUBLIC "-//W3C//DTD SVG 1.1//EN" "http://www.w3.org/Graphics/SVG/1.1/DTD/svg11.dtd">
<svg version="1.1" id="Layer_1" xmlns="http://www.w3.org/2000/svg" xmlns:xlink="http://www.w3.org/1999/xlink" x="0px" y="0px"
	 width="32px" height="32px" viewBox="0 0 32 32" enable-background="new 0 0 32 32" xml:space="preserve">
<g>
	<path fill-rule="evenodd" clip-rule="evenodd" fill="#FFFFFF" d="M24.199,12.294c-0.234-0.353,0.125-1.009-0.575-1.126
		c-0.303-0.695-0.755-1.266-1.392-1.686c-0.738-0.729-1.504-1.41-2.595-1.549c0.059-0.665,0.374-1.31,0.157-1.996
		c-0.019-0.021-0.037-0.042-0.053-0.058c-0.554-0.534-1.176-0.488-1.812,0.127c-0.446,0.432-0.636,1.027-0.986,1.519
		c-0.05-0.072-0.101-0.206-0.149-0.205c-1.243,0.021-2.483-0.009-3.683,0.461c-0.709,0.278-1.306,0.826-2.105,0.879l-0.047-0.047
		c0.028-0.111,0.115-0.288,0.077-0.322c-0.195-0.168-0.32,0.038-0.471,0.128c-2.024,1.213-2.45,3.311-2.966,5.357
		c-0.274-0.06-0.548-0.121-0.822-0.176c-1.467-0.299-2.931-0.654-4.442-0.331c-0.974,0.208-1.719,0.707-2.065,1.69
		c-0.093,0.264-0.129,0.554,0.17,0.655c0.247,0.083,0.346-0.2,0.403-0.391c0.321-1.052,1.119-1.458,2.119-1.533
		c1.594-0.12,3.161,0.01,4.642,0.684c0.039,0.294,0.14,0.598,0.106,0.884c-0.19,1.631,0.262,3.103,0.963,4.552
		c0.306,0.628,0.969,0.946,1.205,1.6c-0.521,1.099-1.001,2.211-1.112,3.44c-0.059,0.645,0.042,1.249,0.75,1.486
		c0.671,0.226,1.165-0.077,1.551-0.636c0.562-0.812,0.885-1.739,1.311-2.617c1.943,1.092,4.077,0.951,6.286,0.905
		c-0.664,0.374-1.36,0.285-1.917,0.64c1.457-0.056,2.863-0.242,4.045-1.238c0.748-0.628,1.355-1.408,2.174-1.968
		c0.261-0.179,0.605-0.403,0.525-0.841c0.024-0.018,0.047-0.037,0.072-0.056c-0.016,0.001-0.035-0.002-0.041,0.006
		c-0.015,0.015-0.02,0.036-0.028,0.054c-0.242-0.61,0.044-1.09,0.365-1.578c0.243-0.368,0.778-0.702,0.238-1.242
		c-0.046-0.047,0.003-0.228,0.052-0.324c0.267-0.528,0.265-1.152,0.601-1.653c1.083,0.086,2.071,0.547,3.116,0.78
		c0.89,0.196,1.78,0.436,2.652-0.068c0.76-0.326,1.06-1.005,1.318-1.716c0.087-0.243,0.087-0.507-0.178-0.596
		s-0.353,0.191-0.405,0.378c-0.149,0.528-0.401,0.991-0.774,1.392c-0.726,0.475-1.502,0.38-2.291,0.212
		c-1.047-0.222-2.028-0.69-3.104-0.803c-0.091-0.091-0.198-0.112-0.32-0.08c-0.097-0.022-0.194-0.044-0.291-0.066
		c-0.116-0.186-0.089-0.327,0.126-0.41c0.19,0.021,0.314-0.08,0.331-0.253c0.023-0.221-0.181-0.126-0.287-0.167
		c-0.008-0.042-0.019-0.086-0.028-0.128C24.819,13.534,24.53,12.91,24.199,12.294z M24.913,12.483
		c0.025-0.649-0.19-1.175-0.747-1.522C24.417,11.468,24.664,11.976,24.913,12.483z"/>
	<path fill-rule="evenodd" clip-rule="evenodd" fill="#F5A1C5" d="M24.753,15.789c-0.336,0.5-0.334,1.125-0.601,1.653
		c-0.049,0.097-0.098,0.277-0.052,0.324c0.54,0.54,0.005,0.874-0.238,1.242c-0.321,0.488-0.607,0.968-0.365,1.578l-0.003-0.004
		c0.08,0.438-0.265,0.662-0.525,0.841c-0.818,0.56-1.426,1.34-2.174,1.968c-1.183,0.996-2.589,1.183-4.045,1.238
		c0.556-0.354,1.252-0.266,1.917-0.64c-2.209,0.046-4.343,0.187-6.287-0.904c0.365-1.186,0.673-2.394,0.799-3.619
		c0.124-1.209,0.758-2.042,1.687-2.931c-0.067,0.861-0.136,1.59-0.176,2.323c-0.015,0.271-0.051,0.604,0.308,0.7
		c0.361,0.096,0.633-0.063,0.812-0.392c0.237-0.438,0.38-0.914,0.458-1.394c0.216-1.346,0.783-2.54,1.517-3.662
		c0.191-0.291,0.396-0.819,0.781-0.651c0.42,0.185,0.312,0.734,0.221,1.143c-0.163,0.74-0.503,1.352-1.28,1.625
		c-0.212,0.073-0.484,0.209-0.379,0.49c0.095,0.248,0.317,0.066,0.486,0.021c0.502-0.136,0.542,0.252,0.591,0.563
		c0.069,0.46,0.042,0.939,0.137,1.394c0.226,1.084,0.941,1.308,1.756,0.563c0.615-0.561,1.009-1.277,1.391-2.005
		C22.192,15.914,23.271,15.44,24.753,15.789z"/>
	<path fill-rule="evenodd" clip-rule="evenodd" fill="#141112" d="M24.753,15.789c-1.481-0.349-2.561,0.125-3.266,1.466
		c-0.382,0.728-0.775,1.444-1.391,2.005c-0.814,0.744-1.53,0.521-1.756-0.563c-0.095-0.454-0.067-0.934-0.137-1.394
		c-0.049-0.312-0.089-0.699-0.591-0.563c-0.169,0.046-0.392,0.228-0.486-0.021c-0.105-0.281,0.167-0.417,0.379-0.49
		c0.777-0.273,1.117-0.885,1.28-1.625c0.091-0.409,0.199-0.958-0.221-1.143c-0.385-0.167-0.59,0.361-0.781,0.651
		c-0.734,1.122-1.301,2.316-1.517,3.662c-0.077,0.479-0.22,0.956-0.458,1.394c-0.179,0.328-0.451,0.487-0.812,0.392
		c-0.359-0.096-0.323-0.43-0.308-0.7c0.04-0.733,0.109-1.462,0.176-2.323c-0.929,0.889-1.563,1.722-1.687,2.931
		c-0.126,1.226-0.434,2.434-0.799,3.619c-0.425,0.877-0.748,1.805-1.31,2.616c-0.387,0.559-0.88,0.861-1.551,0.636
		c-0.708-0.237-0.809-0.842-0.75-1.486c0.111-1.229,0.592-2.342,1.112-3.439c0.458-0.675,0.918-1.348,1.373-2.023
		c0.299-0.445,0.734-0.856,0.797-1.387c0.171-1.444,0.252-2.898,0.375-4.411c-0.29,0.19-0.5,0.328-0.711,0.465
		c-0.07-0.078-0.14-0.155-0.211-0.233c0.389-0.369,0.826-0.706,1.04-1.214c0.169-0.4,0.315-0.882,0.847-0.727
		c0.491,0.143,0.307,0.657,0.33,1.035c0.004,0.069-0.018,0.139-0.022,0.209c-0.092,1.344-0.183,2.688-0.284,4.175
		c0.909-0.604,1.458-1.379,1.613-2.252c0.458-2.558,0.967-5.094,1.919-7.523c0.35-0.492,0.54-1.087,0.986-1.519
		c0.636-0.615,1.258-0.661,1.812-0.127c-1.14-0.051-1.67,0.597-1.869,1.625c-0.105,0.073-0.122,0.179-0.114,0.294
		c-0.018,0.09-0.036,0.179-0.055,0.269c-0.461,1.373-0.808,2.773-0.964,4.215c-0.024,0.229-0.16,0.589,0.157,0.668
		c0.224,0.055,0.334-0.273,0.434-0.478c0.393-0.809,0.781-1.621,1.169-2.433c0.194-0.061,0.208-0.206,0.175-0.374l0.007-0.04
		c0.196-0.094,0.183-0.27,0.17-0.443c0.07-0.276,0.142-0.552,0.212-0.827c0.023-0.093,0.046-0.187,0.069-0.281
		c0.046-0.135,0.091-0.271,0.134-0.407c0.079-0.292,0.14-0.59,0.24-0.874c0.1-0.284-0.133-0.683,0.289-0.856
		c0.217,0.687-0.099,1.332-0.157,1.996c-0.072,0.188-0.144,0.377-0.216,0.565c-0.13,0.091-0.14,0.22-0.111,0.36
		c-0.004,0.178-0.053,0.342-0.165,0.483c-0.032,0.081-0.063,0.161-0.093,0.242c-0.521,1.518-1.401,2.861-2.081,4.302
		c-0.18,0.382-0.356,0.761-0.293,1.208c0.42-0.631,0.785-1.281,1.245-1.867c0.29-0.368,0.599-0.788,1.155-0.579
		c0.598,0.223,0.83,0.708,0.819,1.336c-0.013,0.734-0.408,1.271-0.859,1.793c-0.156,0.182-0.49,0.384-0.315,0.641
		c0.43,0.632,0.472,1.36,0.644,2.059c0.129,0.528,0.414,0.489,0.75,0.178c0.381-0.357,0.655-0.795,0.871-1.264
		c0.688-1.492,1.794-2.301,3.488-2.17c0.097,0.022,0.194,0.044,0.291,0.066c0.089,0.099,0.202,0.104,0.32,0.08
		c1.075,0.113,2.057,0.581,3.104,0.803c0.789,0.168,1.565,0.263,2.291-0.212c0.021,0.181-0.078,0.37,0.039,0.543
		c-0.872,0.504-1.763,0.265-2.652,0.068C26.824,16.336,25.836,15.875,24.753,15.789z M10.285,21.702
		c-0.667,0.984-1.004,2.083-1.097,3.257c-0.03,0.384,0.03,0.806,0.467,0.909c0.418,0.1,0.618-0.271,0.75-0.592
		c0.395-0.968,0.75-1.949,0.889-2.993c0.3-0.895,0.516-1.803,0.472-2.761C11.18,20.207,10.684,20.922,10.285,21.702z"/>
	<path fill-rule="evenodd" clip-rule="evenodd" fill="#F5A1C5" d="M16.945,7.524c-0.952,2.429-1.461,4.965-1.919,7.523
		c-0.155,0.873-0.704,1.649-1.613,2.252c0.101-1.487,0.191-2.831,0.284-4.175c0.004-0.07,0.026-0.14,0.022-0.209
		c-0.023-0.377,0.162-0.892-0.33-1.035c-0.532-0.155-0.678,0.327-0.847,0.727c-0.214,0.508-0.651,0.845-1.04,1.214
		c-1.309,0.664-2.606,0.343-3.902-0.046c0.516-2.046,0.941-4.144,2.966-5.357c0.151-0.09,0.276-0.296,0.471-0.128
		c0.039,0.034-0.048,0.211-0.076,0.322c-0.044,0.048-0.089,0.097-0.134,0.145c-0.121-0.004-0.219,0.035-0.271,0.153
		c-0.045,0.048-0.09,0.097-0.135,0.144c-0.044-0.005-0.087,0-0.128,0.016C10.062,9.183,9.87,9.328,9.855,9.614
		C9.809,9.66,9.761,9.706,9.714,9.752C9.669,9.8,9.624,9.85,9.58,9.899C9.544,9.949,9.51,10,9.479,10.052
		c-0.002,0.002,0.032,0.025,0.05,0.038c0.02-0.06,0.041-0.121,0.061-0.181c0.048-0.045,0.097-0.091,0.146-0.136
		C9.78,9.726,9.826,9.679,9.872,9.632c0.207-0.116,0.448-0.187,0.552-0.433c0.018-0.043,0.021-0.086,0.01-0.132
		c0.049-0.044,0.099-0.088,0.148-0.132c0.123,0.01,0.22-0.031,0.281-0.143c0.049-0.044,0.097-0.088,0.146-0.132
		c0.8-0.053,1.396-0.601,2.105-0.879c1.2-0.47,2.44-0.44,3.683-0.461C16.844,7.318,16.895,7.453,16.945,7.524z M13.342,8.622
		c-0.384,0.041-0.697,0.234-0.676,0.692c0.02,0.411,0.368,0.533,0.706,0.534c0.384,0.001,0.703-0.187,0.703-0.619
		C14.075,8.802,13.797,8.614,13.342,8.622z"/>
	<path fill-rule="evenodd" clip-rule="evenodd" fill="#F5A0C5" d="M24.477,15.22c-1.694-0.131-2.8,0.678-3.488,2.17
		c-0.216,0.469-0.49,0.906-0.871,1.264c-0.336,0.312-0.621,0.351-0.75-0.178c-0.172-0.698-0.214-1.427-0.644-2.059
		c-0.175-0.257,0.159-0.459,0.315-0.641c0.451-0.522,0.847-1.059,0.859-1.793c0.011-0.628-0.222-1.113-0.819-1.336
		c-0.557-0.208-0.865,0.211-1.155,0.579c-0.46,0.586-0.825,1.236-1.245,1.867c-0.063-0.447,0.113-0.826,0.293-1.208
		c0.68-1.441,1.56-2.785,2.081-4.302c0.03-0.081,0.061-0.161,0.093-0.242c0.112-0.141,0.161-0.305,0.165-0.483
		c0.105-0.1,0.121-0.226,0.111-0.36c0.072-0.188,0.144-0.377,0.216-0.565c1.091,0.139,1.856,0.82,2.595,1.549
		c-0.137-0.001-0.274-0.002-0.411-0.003c-0.108-0.152-0.272-0.14-0.43-0.143l0.003,0.004c-0.047-0.048-0.095-0.097-0.142-0.146
		c-0.424-0.191-0.909-0.113-1.338-0.333c0.4,0.455,0.562,1.147,1.305,1.19c0.412,0.394,0.688,0.944,1.293,1.112
		c0.305,0.331,0.537,0.738,0.623,1.15c0.138,0.656,0.529,0.736,1.063,0.679c0.367,0.349-0.087,0.969,0.42,1.271
		c0.01,0.042,0.021,0.086,0.028,0.128c-0.016,0.14-0.03,0.279-0.044,0.419C24.388,14.893,24.36,15.034,24.477,15.22z"/>
	<path fill-rule="evenodd" clip-rule="evenodd" fill="#F5A1C5" d="M11.713,14.055c0.211-0.137,0.422-0.275,0.711-0.465
		c-0.122,1.512-0.204,2.966-0.375,4.411c-0.063,0.53-0.498,0.941-0.797,1.387c-0.455,0.676-0.915,1.349-1.373,2.023
		c-0.235-0.654-0.898-0.973-1.204-1.601c-0.702-1.449-1.154-2.921-0.963-4.552c0.033-0.286-0.067-0.59-0.106-0.884
		c0.223-0.271,0.465-0.048,0.688-0.014C9.461,14.546,10.626,14.753,11.713,14.055z"/>
	<path fill-rule="evenodd" clip-rule="evenodd" fill="#201C1E" d="M11.713,14.055c-1.087,0.698-2.252,0.491-3.419,0.305
		c-0.223-0.035-0.465-0.258-0.688,0.014C6.125,13.7,4.558,13.57,2.964,13.69c-1,0.075-1.798,0.481-2.119,1.533
		c-0.058,0.191-0.157,0.474-0.403,0.391c-0.299-0.101-0.263-0.391-0.17-0.655c0.346-0.984,1.091-1.482,2.065-1.69
		c1.512-0.324,2.975,0.032,4.442,0.331c0.274,0.055,0.548,0.117,0.822,0.176c1.296,0.389,2.593,0.71,3.902,0.046
		C11.573,13.9,11.643,13.978,11.713,14.055z"/>
	<path fill-rule="evenodd" clip-rule="evenodd" fill="#F1F0F1" d="M19.795,5.937c-0.422,0.173-0.189,0.572-0.289,0.856
		c-0.101,0.284-0.161,0.582-0.24,0.874c-0.463-0.059-0.917-0.207-1.393-0.163c0.199-1.028,0.729-1.675,1.869-1.625
		C19.758,5.895,19.776,5.915,19.795,5.937z"/>
	<path fill-rule="evenodd" clip-rule="evenodd" fill="#FAEEF5" d="M24.198,12.991c-0.533,0.057-0.925-0.022-1.063-0.679
		c-0.086-0.412-0.318-0.819-0.623-1.15c-0.046-0.095-0.093-0.189-0.139-0.284c0.433,0.026,0.859,0.079,1.25,0.29
		c0.7,0.117,0.341,0.773,0.575,1.126C24.198,12.527,24.198,12.759,24.198,12.991z"/>
	<path fill-rule="evenodd" clip-rule="evenodd" fill="#1C1A1B" d="M30.521,16.5c-0.117-0.173-0.019-0.362-0.039-0.543
		c0.373-0.4,0.625-0.863,0.774-1.392c0.053-0.187,0.141-0.467,0.405-0.378s0.265,0.354,0.178,0.596
		C31.581,15.495,31.281,16.174,30.521,16.5z"/>
	<path fill-rule="evenodd" clip-rule="evenodd" fill="#F6B0CF" d="M23.624,11.167c-0.391-0.21-0.817-0.263-1.25-0.29
		c-0.032-0.527-0.645-0.825-0.553-1.399c0.137,0.001,0.274,0.002,0.411,0.003C22.869,9.902,23.321,10.473,23.624,11.167z"/>
	<path fill-rule="evenodd" clip-rule="evenodd" fill="#FAE0EC" d="M24.198,12.991c0-0.232,0-0.464,0.001-0.697
		c0.331,0.616,0.62,1.24,0.419,1.968C24.111,13.959,24.565,13.339,24.198,12.991z"/>
	<path fill-rule="evenodd" clip-rule="evenodd" fill="#F7C2DA" d="M24.913,12.483c-0.249-0.507-0.496-1.015-0.747-1.522
		C24.723,11.309,24.938,11.834,24.913,12.483z"/>
	<path fill-rule="evenodd" clip-rule="evenodd" fill="#FAE0EC" d="M24.603,14.81c0.014-0.14,0.028-0.279,0.044-0.419
		c0.106,0.04,0.311-0.055,0.287,0.167C24.917,14.729,24.793,14.83,24.603,14.81z"/>
	<path fill-rule="evenodd" clip-rule="evenodd" fill="#1C1A1B" d="M25.088,15.366c-0.118,0.023-0.231,0.019-0.32-0.08
		C24.89,15.254,24.997,15.275,25.088,15.366z"/>
	<path fill-rule="evenodd" clip-rule="evenodd" fill="#F5A1C5" d="M23.497,20.586c0.009-0.018,0.014-0.039,0.028-0.054
		c0.006-0.008,0.025-0.005,0.041-0.006c-0.025,0.019-0.048,0.038-0.072,0.056L23.497,20.586z"/>
	<path fill-rule="evenodd" clip-rule="evenodd" fill="#F09DC4" d="M19.063,8.355c-0.07,0.275-0.142,0.551-0.212,0.827
		c-0.119,0.123-0.159,0.277-0.17,0.443l-0.007,0.04c-0.06,0.125-0.118,0.25-0.175,0.374c-0.388,0.812-0.776,1.624-1.169,2.433
		c-0.1,0.204-0.21,0.533-0.434,0.478c-0.316-0.079-0.181-0.439-0.157-0.668c0.157-1.441,0.503-2.842,0.964-4.215
		C18.185,8.031,18.619,8.213,19.063,8.355z"/>
	<path fill-rule="evenodd" clip-rule="evenodd" fill="#F4F4F4" d="M11.293,22.283c-0.139,1.044-0.495,2.025-0.889,2.993
		c-0.132,0.321-0.332,0.691-0.75,0.592c-0.437-0.104-0.497-0.525-0.467-0.909c0.093-1.174,0.43-2.272,1.097-3.257
		C10.624,21.891,10.866,22.249,11.293,22.283z"/>
	<path fill-rule="evenodd" clip-rule="evenodd" fill="#EC9FC5" d="M11.293,22.283c-0.427-0.034-0.67-0.393-1.009-0.581
		c0.399-0.78,0.896-1.495,1.48-2.18C11.809,20.48,11.594,21.389,11.293,22.283z"/>
	<path fill-rule="evenodd" clip-rule="evenodd" fill="#EC9FC5" d="M17.873,7.503c0.476-0.043,0.93,0.104,1.393,0.163
		c-0.043,0.136-0.088,0.272-0.134,0.408c-0.457-0.092-0.916-0.184-1.373-0.276C17.751,7.682,17.768,7.576,17.873,7.503z"/>
	<path fill-rule="evenodd" clip-rule="evenodd" fill="#F7C2DA" d="M17.759,7.798c0.457,0.092,0.916,0.185,1.373,0.276
		c-0.023,0.094-0.046,0.188-0.069,0.281c-0.443-0.142-0.878-0.324-1.358-0.289C17.723,7.977,17.741,7.888,17.759,7.798z"/>
	<path fill-rule="evenodd" clip-rule="evenodd" fill="#201C1E" d="M18.681,9.625c0.011-0.166,0.051-0.32,0.17-0.443
		C18.863,9.355,18.877,9.531,18.681,9.625z"/>
	<path fill-rule="evenodd" clip-rule="evenodd" fill="#201C1E" d="M19.422,8.498c0.01,0.135-0.006,0.26-0.111,0.36
		C19.282,8.718,19.292,8.589,19.422,8.498z"/>
	<path fill-rule="evenodd" clip-rule="evenodd" fill="#201C1E" d="M18.499,10.039c0.057-0.124,0.115-0.249,0.175-0.374
		C18.707,9.833,18.693,9.978,18.499,10.039z"/>
	<path fill-rule="evenodd" clip-rule="evenodd" fill="#201C1E" d="M19.146,9.341c-0.032,0.081-0.063,0.161-0.093,0.242
		C19.083,9.502,19.113,9.422,19.146,9.341z"/>
	<path fill-rule="evenodd" clip-rule="evenodd" fill="#141112" d="M13.342,8.622c0.456-0.007,0.733,0.18,0.733,0.607
		c0,0.433-0.319,0.62-0.703,0.619c-0.337-0.001-0.686-0.123-0.706-0.534C12.645,8.855,12.958,8.663,13.342,8.622z"/>
	<path fill-rule="evenodd" clip-rule="evenodd" fill="#FAE0EC" d="M9.855,9.614c0.015-0.286,0.207-0.431,0.438-0.543
		c0.043,0.043,0.087,0.085,0.131,0.129c-0.104,0.246-0.345,0.317-0.552,0.432L9.855,9.614z"/>
	<path fill-rule="evenodd" clip-rule="evenodd" fill="#FFFFFF" d="M10.862,8.792c-0.061,0.112-0.158,0.153-0.281,0.143L10.556,8.91
		c0.053-0.118,0.15-0.157,0.271-0.153L10.862,8.792z"/>
	<path fill-rule="evenodd" clip-rule="evenodd" fill="#FAE0EC" d="M9.589,9.909c-0.021,0.06-0.041,0.121-0.061,0.181
		c-0.018-0.013-0.052-0.036-0.05-0.038C9.51,10,9.544,9.949,9.58,9.899L9.589,9.909z"/>
	<path fill-rule="evenodd" clip-rule="evenodd" fill="#FFFFFF" d="M10.828,8.757c0.044-0.048,0.089-0.097,0.134-0.145
		c0,0,0.046,0.047,0.046,0.047c-0.048,0.044-0.097,0.088-0.146,0.132L10.828,8.757z"/>
	<path fill-rule="evenodd" clip-rule="evenodd" fill="#FAE0EC" d="M9.735,9.773C9.687,9.818,9.638,9.864,9.589,9.909l-0.01-0.01
		C9.624,9.85,9.669,9.8,9.714,9.752L9.735,9.773z"/>
	<path fill-rule="evenodd" clip-rule="evenodd" fill="#FAE0EC" d="M9.714,9.752C9.761,9.706,9.809,9.66,9.855,9.614
		c0,0,0.017,0.017,0.017,0.017C9.826,9.679,9.78,9.726,9.735,9.773L9.714,9.752z"/>
	<path fill-rule="evenodd" clip-rule="evenodd" fill="#FFFFFF" d="M10.424,9.199c-0.043-0.043-0.087-0.085-0.131-0.129
		c0.042-0.016,0.084-0.021,0.128-0.016l0.012,0.013C10.445,9.113,10.441,9.156,10.424,9.199z"/>
	<path fill-rule="evenodd" clip-rule="evenodd" fill="#FFFFFF" d="M10.582,8.935c-0.049,0.044-0.099,0.088-0.148,0.132l-0.012-0.013
		c0.045-0.047,0.09-0.096,0.135-0.144L10.582,8.935z"/>
	<path fill-rule="evenodd" clip-rule="evenodd" fill="#F7C2DA" d="M21.22,10.05c-0.743-0.042-0.904-0.735-1.305-1.19
		c0.429,0.22,0.914,0.142,1.338,0.334c-0.13,0.218,0.076,0.113,0.142,0.145l-0.003-0.004C21.396,9.588,21.671,9.906,21.22,10.05z"/>
	<path fill-rule="evenodd" clip-rule="evenodd" fill="#FAE0EC" d="M21.22,10.05c0.451-0.144,0.176-0.462,0.172-0.715
		c0.157,0.003,0.321-0.009,0.43,0.143c-0.092,0.575,0.521,0.873,0.553,1.399c0.046,0.095,0.093,0.189,0.139,0.284
		C21.908,10.994,21.632,10.444,21.22,10.05z"/>
	<path fill-rule="evenodd" clip-rule="evenodd" fill="#FAE0EC" d="M21.395,9.339c-0.065-0.032-0.271,0.073-0.142-0.145
		C21.3,9.243,21.348,9.291,21.395,9.339z"/>
</g>
</svg>
