<?xml version="1.0" encoding="utf-8"?>
<!-- Generator: Adobe Illustrator 16.0.3, SVG Export Plug-In . SVG Version: 6.00 Build 0)  -->
<!DOCTYPE svg PUBLIC "-//W3C//DTD SVG 1.1//EN" "http://www.w3.org/Graphics/SVG/1.1/DTD/svg11.dtd">
<svg version="1.1" xmlns="http://www.w3.org/2000/svg" xmlns:xlink="http://www.w3.org/1999/xlink" x="0px" y="0px" width="32px"
	 height="32px" viewBox="0 0 32 32" enable-background="new 0 0 32 32" xml:space="preserve">
<g id="Layer_1">
	<circle fill="#49A4CB" cx="16" cy="16" r="16"/>
</g>
<g id="Layer_2" display="none">
	<circle display="inline" cx="16" cy="16" r="16"/>
</g>
<g id="facebook">
	<path fill-rule="evenodd" clip-rule="evenodd" fill="#FDFDFD" d="M14.183,20.512c0-1.031-0.006-2.063,0.005-3.093
		c0.002-0.218-0.053-0.286-0.275-0.278c-0.458,0.018-0.916,0.008-1.375,0.004c-0.39-0.003-0.533-0.141-0.535-0.521
		c-0.003-0.677-0.004-1.354,0-2.031c0.002-0.36,0.152-0.509,0.516-0.514c0.448-0.006,0.896-0.014,1.343,0.003
		c0.236,0.009,0.321-0.044,0.316-0.303c-0.016-0.749-0.021-1.5,0.011-2.249c0.041-0.952,0.33-1.821,1.028-2.508
		c0.657-0.645,1.477-0.916,2.375-0.951c0.646-0.026,1.292-0.012,1.938-0.008c0.347,0.001,0.499,0.145,0.504,0.492
		c0.01,0.573,0.009,1.146,0.001,1.719c-0.005,0.364-0.15,0.494-0.525,0.503c-0.437,0.011-0.875,0-1.311,0.034
		c-0.69,0.054-1.053,0.441-1.071,1.138c-0.018,0.635,0,1.271-0.014,1.906c-0.004,0.185,0.06,0.221,0.229,0.219
		c0.729-0.008,1.458-0.005,2.187-0.003c0.485,0.001,0.63,0.179,0.566,0.66c-0.081,0.619-0.153,1.239-0.222,1.86
		c-0.049,0.446-0.16,0.554-0.614,0.555c-0.625,0.002-1.25,0.011-1.875-0.005c-0.225-0.006-0.273,0.066-0.272,0.279
		c0.008,2.042,0.005,4.083,0.005,6.125c0,0.453-0.066,0.518-0.524,0.518c-0.667,0-1.333,0.002-2-0.001
		c-0.346-0.001-0.42-0.075-0.421-0.425c-0.002-1.041-0.001-2.083-0.001-3.125C14.176,20.512,14.18,20.512,14.183,20.512z"/>
</g>
<g id="twitter" display="none">
	<path display="inline" fill-rule="evenodd" clip-rule="evenodd" fill="#FDFDFD" d="M9.333,14.127
		c-0.571-0.701-0.907-1.489-0.881-2.408c0.015-0.512,0.137-0.997,0.37-1.453c0.174-0.34,0.251-0.351,0.497-0.063
		c1.009,1.186,2.238,2.059,3.693,2.611c0.696,0.265,1.416,0.431,2.154,0.524c0.25,0.032,0.347-0.021,0.333-0.306
		c-0.067-1.439,0.5-2.568,1.795-3.224c1.311-0.663,2.594-0.521,3.764,0.388c0.21,0.163,0.402,0.2,0.655,0.123
		c0.475-0.144,0.931-0.328,1.364-0.566c0.104-0.057,0.212-0.156,0.338-0.057c0.147,0.116,0.042,0.251-0.002,0.366
		c-0.162,0.424-0.396,0.809-0.745,1.16c0.348,0.034,0.602-0.126,0.874-0.223c0.111-0.04,0.229-0.123,0.332,0.017
		c0.094,0.125-0.004,0.211-0.065,0.301c-0.286,0.419-0.604,0.819-1.003,1.129c-0.37,0.288-0.47,0.63-0.505,1.086
		c-0.295,3.901-2.107,6.822-5.769,8.357c-2.697,1.131-5.414,0.929-8.029-0.412c-0.073-0.038-0.143-0.083-0.215-0.122
		c-0.134-0.075-0.245-0.171-0.194-0.344c0.05-0.167,0.189-0.195,0.346-0.19c0.842,0.022,1.664-0.09,2.458-0.38
		c0.454-0.165,0.89-0.369,1.304-0.658c-0.096-0.11-0.229-0.092-0.335-0.125c-1.081-0.34-1.835-1.027-2.248-2.085
		c-0.126-0.324-0.051-0.41,0.294-0.36c0.061,0.009,0.123,0.017,0.184,0.02c0.062,0.004,0.123,0.001,0.194,0.001
		c-0.043-0.116-0.155-0.131-0.234-0.182c-0.993-0.643-1.543-1.547-1.625-2.729c-0.029-0.422,0.047-0.47,0.423-0.301
		c0.14,0.063,0.287,0.108,0.431,0.162c0.034,0.018,0.069,0.031,0.096-0.007C9.385,14.174,9.351,14.145,9.333,14.127z"/>
</g>
</svg>
