<?xml version="1.0" encoding="utf-8"?>
<!-- Generator: Adobe Illustrator 16.0.3, SVG Export Plug-In . SVG Version: 6.00 Build 0)  -->
<!DOCTYPE svg PUBLIC "-//W3C//DTD SVG 1.1//EN" "http://www.w3.org/Graphics/SVG/1.1/DTD/svg11.dtd">
<svg version="1.1" id="Layer_1" xmlns="http://www.w3.org/2000/svg" xmlns:xlink="http://www.w3.org/1999/xlink" x="0px" y="0px"
	 width="32px" height="32px" viewBox="0 0 32 32" enable-background="new 0 0 32 32" xml:space="preserve">
<g>
	<path fill-rule="evenodd" clip-rule="evenodd" d="M0.063,15.938c0-0.25,0-0.5,0-0.75c0.201-0.436,0.496-0.792,0.853-1.117
		c4.614-4.193,9.221-8.393,13.829-12.593c0.914-0.833,1.722-0.834,2.635-0.001c4.562,4.158,9.122,8.317,13.688,12.469
		c0.415,0.377,0.819,0.751,0.995,1.305c0,0.229,0,0.458,0,0.688c-0.016,0.012-0.041,0.02-0.047,0.035
		c-0.382,0.942-0.838,1.252-1.85,1.253c-0.541,0.001-1.083,0-1.624,0c-0.416,0-0.416,0-0.416,0.4c0,4.177,0,8.353,0,12.529
		c-0.001,0.758-0.347,1.107-1.103,1.108c-2.511,0.002-5.021,0.001-7.53,0c-0.776,0-1.118-0.346-1.118-1.125
		c0-2.5-0.003-5,0.006-7.499c0-0.22-0.053-0.274-0.271-0.272c-1.354,0.012-2.708,0.013-4.062,0
		c-0.245-0.003-0.304,0.061-0.303,0.304c0.01,2.521,0.007,5.041,0.005,7.562c0,0.63-0.36,1.026-0.96,1.027
		c-2.614,0.007-5.229,0.003-7.843,0.002c-0.377,0-0.654-0.172-0.837-0.501c-0.111-0.2-0.11-0.417-0.11-0.637
		c0-4.166,0-8.332,0-12.498c0-0.4,0-0.4-0.416-0.4c-0.583,0-1.167,0.005-1.75-0.001c-0.88-0.01-1.397-0.375-1.706-1.193
		C0.115,15.997,0.085,15.969,0.063,15.938z"/>
	<path fill-rule="evenodd" clip-rule="evenodd" fill="#FDFDFD" d="M0.063,15.938c0.022,0.031,0.053,0.06,0.066,0.094
		c0.309,0.818,0.825,1.184,1.706,1.193C2.417,17.23,3,17.226,3.583,17.226c0.416,0,0.416,0,0.416,0.4c0,4.166,0,8.332,0,12.498
		c0,0.22-0.001,0.437,0.11,0.637c0.183,0.329,0.46,0.501,0.837,0.501c2.614,0.001,5.229,0.005,7.843-0.002
		c0.601-0.001,0.96-0.397,0.96-1.027c0.002-2.521,0.005-5.041-0.005-7.562c-0.001-0.243,0.059-0.307,0.303-0.304
		c1.354,0.013,2.708,0.012,4.062,0c0.219-0.002,0.271,0.053,0.271,0.272c-0.009,2.499-0.006,4.999-0.006,7.499
		c0,0.779,0.342,1.125,1.118,1.125c2.51,0.001,5.02,0.002,7.53,0c0.756-0.001,1.102-0.351,1.103-1.108c0-4.177,0-8.353,0-12.529
		c0-0.4,0-0.4,0.416-0.4c0.541,0,1.083,0.001,1.624,0c1.012-0.001,1.468-0.311,1.85-1.253c0.006-0.016,0.031-0.023,0.047-0.035
		c0,5.292-0.002,10.583,0.006,15.875c0,0.214-0.042,0.256-0.256,0.256c-10.5-0.007-21-0.007-31.5,0
		c-0.214,0-0.256-0.042-0.256-0.256C0.064,26.521,0.063,21.229,0.063,15.938z"/>
	<path fill-rule="evenodd" clip-rule="evenodd" fill="#010101" d="M21.566,2.738c1.166,0,2.247,0,3.328,0
		c0.948,0,1.896-0.002,2.844,0c0.72,0.002,1.078,0.356,1.079,1.067c0.002,1.75,0.001,3.499,0.001,5.249c0,0.07,0,0.14,0,0.277
		C26.393,7.126,24.011,4.96,21.566,2.738z"/>
</g>
</svg>
