<?xml version="1.0" encoding="utf-8"?>
<!-- Generator: Adobe Illustrator 16.0.3, SVG Export Plug-In . SVG Version: 6.00 Build 0)  -->
<!DOCTYPE svg PUBLIC "-//W3C//DTD SVG 1.1//EN" "http://www.w3.org/Graphics/SVG/1.1/DTD/svg11.dtd">
<svg version="1.1" id="Layer_1" xmlns="http://www.w3.org/2000/svg" xmlns:xlink="http://www.w3.org/1999/xlink" x="0px" y="0px"
	 width="32px" height="32px" viewBox="0 0 32 32" enable-background="new 0 0 32 32" xml:space="preserve">
<g>
	<path fill-rule="evenodd" clip-rule="evenodd" fill="#010101" d="M23.369,31.057c-1.256-0.112-2.518-0.446-3.751-0.902
		c-2.919-1.079-5.508-2.718-7.903-4.68c-3.335-2.732-6.122-5.934-8.236-9.702c-1.042-1.857-1.85-3.81-2.251-5.913
		C1.164,9.523,1.126,9.182,1.073,8.843C1.014,8.468,1.167,8.149,1.34,7.839c0.85-1.528,1.933-2.884,3.088-4.186
		C5.113,2.881,5.849,2.166,6.67,1.532c1.07-0.826,2.074-0.433,2.658,0.352c1.507,2.028,2.893,4.141,3.91,6.47
		c0.012,0.028,0.018,0.06,0.029,0.089c0.448,1.184,0.333,1.736-0.587,2.592c-0.502,0.468-1.028,0.912-1.557,1.351
		c-0.172,0.143-0.206,0.261-0.127,0.472c1.237,3.331,3.418,5.836,6.549,7.514c0.577,0.309,1.178,0.565,1.796,0.783
		c0.171,0.061,0.256,0.021,0.368-0.104c0.548-0.614,1.038-1.277,1.632-1.851c0.574-0.556,1.228-0.734,2.003-0.47
		c0.553,0.188,1.083,0.422,1.599,0.69c1.822,0.946,3.526,2.08,5.194,3.271c0.239,0.171,0.436,0.387,0.589,0.639
		c0.392,0.64,0.448,1.269,0,1.922c-0.637,0.928-1.428,1.708-2.261,2.449c-1.3,1.158-2.658,2.238-4.187,3.086
		C24.015,30.935,23.746,31.08,23.369,31.057z"/>
</g>
</svg>
